- 
http://www.Speed.Cd
 
http://www.Speed.Cd       the fast  and The Hottest Private Tracker on the net

Please Seed back to make the speed Faster!!
 ............ NFO .............
-[IMG]http://i.imgur.com/igd80fh.jpg[/IMG]

Source: 720p.BluRay.x264-PFa
 
http://www.imdb.com/title/tt2294705/

Terrorism comes to the suburbs of Melbourne in this taut, claustrophobic drama. Sadiq, a wounded suicide bomber on the run after a synagogue bomb attack, takes an elderly Holocaust survivor hostage in this new Australian drama.

General
Complete name                            : Last Dance 2012 BRRip x264 AAC-OFFLiNE.mp4
Format                                   : MPEG-4
Format profile                           : Base Media
Codec ID                                 : isom
File size                                : 699 MiB
Duration                                 : 1h 28mn
Overall bit rate mode                    : Variable
Overall bit rate                         : 1 103 Kbps
Encoded date                             : UTC 2013-03-04 18:43:00
Tagged date                              : UTC 2013-03-04 18:43:00

Video
ID                                       : 1
Format                                   : AVC
Format/Info                              : Advanced Video Codec
Format profile                           : High@L4.1
Format settings, CABAC                   : Yes
Format settings, ReFrames                : 3 frames
Codec ID                                 : avc1
Codec ID/Info                            : Advanced Video Coding
Duration                                 : 1h 28mn
Bit rate mode                            : Variable
Bit rate                                 : 815 Kbps
Maximum bit rate                         : 40.0 Mbps
Width                                    : 720 pixels
Height                                   : 400 pixels
Display aspect ratio                     : 16:9
Frame rate mode                          : Constant
Frame rate                               : 24.000 fps
Color space                              : YUV
Chroma subsampling                       : 4:2:0
Bit depth                                : 8 bits
Scan type                                : Progressive
Bits/(Pixel*Frame)                       : 0.118
Stream size                              : 516 MiB (74%)
Writing library                          : x264 core 130 r2273 b3065e6

Audio
ID                                       : 2
Format                                   : AAC
Format/Info                              : Advanced Audio Codec
Format profile                           : LC
Codec ID                                 : 40
Duration                                 : 1h 28mn
Bit rate mode                            : Variable
Bit rate                                 : 288 Kbps
Maximum bit rate                         : 369 Kbps
Channel(s)                               : 6 channels
Channel positions                        : Front: L C R, Side: L R, LFE
Sampling rate                            : 48.0 KHz
Compression mode                         : Lossy
Stream size                              : 181 MiB (26%)
Language                                 : English
Encoded date                             : UTC 2013-03-04 16:25:30
Tagged date                              : UTC 2013-03-04 18:43:33

[IMG]http://i.imgur.com/0RBbW38.png[/IMG]
[IMG]http://i.imgur.com/Wu1e8pf.png[/IMG]
[IMG]http://i.imgur.com/mGSGuCH.png[/IMG]
[IMG]http://i.imgur.com/5E8eMw2.png[/IMG]
[IMG]http://i.imgur.com/6FdkaJD.png[/IMG]

Greets: To Our Friends